<svg id="Capa_1" data-name="Capa 1" xmlns="http://www.w3.org/2000/svg" viewBox="0 0 758 768"><defs><style>.cls-1{fill:#3ae9d6;}.cls-2{fill:#0047ba;}</style></defs><path class="cls-1" d="M585.78,195.05v46.42c0,10.61-2.34,18.42-7.17,23.91s-11,7.95-19.21,7.95c-8,0-14.25-2.63-19.1-8.05S533,252.05,533,241.47V195.05H443.8v47.71a149.18,149.18,0,0,0,.75,14.95A119.22,119.22,0,0,1,508.65,326a142.4,142.4,0,0,1,6.69,23.84c1.15.36,2.29.69,3.41,1l1,.29a140.88,140.88,0,0,0,39.68,5.43c17.4,0,33.33-2.65,47.35-7.86a102.88,102.88,0,0,0,36.74-23A101.18,101.18,0,0,0,667,289.15c5.32-14,8-29.6,8-46.39V195.05Z"/><circle class="cls-1" cx="559.41" cy="126.31" r="58.31" transform="translate(8.9 287.02) rotate(-29)"/><path class="cls-1" d="M277.61,282a121.51,121.51,0,0,1,34.94-23.88,147.46,147.46,0,0,0,.78-15.31V195.05H224.1v46.42c0,10.61-2.34,18.42-7.17,23.91s-11,7.95-19.21,7.95c-8,0-14.25-2.63-19.1-8.05s-7.26-13.23-7.26-23.81V195.05H82.13v47.71c0,16.82,2.69,32.43,8,46.38a100.93,100.93,0,0,0,23.51,36.55,102.65,102.65,0,0,0,36.73,23c2.29.85,4.54,1.51,6.71,2.15l1,.29a140.93,140.93,0,0,0,39.68,5.43c16.39,0,31.48-2.35,44.9-7a142.59,142.59,0,0,1,6.66-23.6A121.75,121.75,0,0,1,277.61,282Z"/><circle class="cls-1" cx="197.73" cy="126.31" r="58.31" transform="translate(-29.37 67.34) rotate(-18.01)"/><path class="cls-2" d="M515.34,349.84A142.4,142.4,0,0,0,508.65,326a119.22,119.22,0,0,0-64.1-68.29q-4.16-1.87-8.51-3.5c-2.75-1-5.46-1.82-8.08-2.59l-1.17-.34A169.81,169.81,0,0,0,379,244.73c-21,0-40.17,3.19-57.07,9.48q-4.78,1.77-9.34,3.86A119.29,119.29,0,0,0,249.28,326a142.59,142.59,0,0,0-6.66,23.6,170,170,0,0,0-3,32.32v57.5H347.17v-56c0-12.79,2.82-22.2,8.64-28.82,5.65-6.44,13.22-9.58,23.15-9.58,9.66,0,17.18,3.17,23,9.71s8.76,15.94,8.76,28.69v56H518.28v-57.5A170.59,170.59,0,0,0,515.34,349.84Z"/><circle class="cls-2" cx="378.95" cy="161.89" r="70.27" transform="translate(-23.78 74.58) rotate(-10.9)"/><path class="cls-2" d="M210,505.9c0-5.59,1.63-10,4.87-13.23s7.64-4.85,13.21-4.85H292.2a22.94,22.94,0,0,1,2.43,5.63,25.23,25.23,0,0,1,1.07,7.38c0,4.92-1.07,8.44-3.21,10.51a11.63,11.63,0,0,1-8.45,3.1H243v18.08h43.74a25,25,0,0,1,3.49,12.83c0,4.92-1,8.43-3.1,10.5a11.31,11.31,0,0,1-8.36,3.1H243v20.41h50a23.67,23.67,0,0,1,2.44,5.65,25.47,25.47,0,0,1,1.07,7.38q0,7.38-3.21,10.59a11.38,11.38,0,0,1-8.46,3.21H228.05q-8.36,0-13.21-4.86T210,588.11Z"/><path class="cls-2" d="M676.61,606.4a51.85,51.85,0,0,1-6.7,1.17,73.09,73.09,0,0,1-9,.59,41.57,41.57,0,0,1-7.87-.68,14.07,14.07,0,0,1-5.74-2.44,10.48,10.48,0,0,1-3.49-4.85A23.69,23.69,0,0,1,642.6,592V487.82c1.43-.27,3.69-.62,6.81-1.08a63.85,63.85,0,0,1,8.93-.68,41.42,41.42,0,0,1,7.87.68,14,14,0,0,1,5.74,2.44,10.39,10.39,0,0,1,3.5,4.85,23.68,23.68,0,0,1,1.16,8.17Z"/><path class="cls-2" d="M153,528.41q0-6.79-3.84-10c-2.56-2.12-9.27-3.18-13.67-3.18a67.26,67.26,0,0,0-12.11,1.09,21.84,21.84,0,0,0-7.35,3.3v86.55a52.66,52.66,0,0,1-6.92,1.31,68.84,68.84,0,0,1-9.76.66c-3.22,0-2.67-.21-5.22-.66a14.67,14.67,0,0,1-6.49-2.64,12.67,12.67,0,0,1-4-5.37,23.27,23.27,0,0,1-1.43-8.89V514.37a16.85,16.85,0,0,1,2.53-9.66,26.49,26.49,0,0,1,6.91-6.8,62.73,62.73,0,0,1,18.77-8.56,89.46,89.46,0,0,1,25.12-3.29q24.81,0,38.2,10.86t13.39,30.18v79.09a87.14,87.14,0,0,1-13.45,2,50.55,50.55,0,0,1-8.67-.66,14.64,14.64,0,0,1-6.47-2.64,12.61,12.61,0,0,1-4.06-5.37A23.08,23.08,0,0,1,153,590.6Z"/><path class="cls-2" d="M585.59,528.41q0-6.79-3.83-10c-2.57-2.12-9.28-3.18-13.67-3.18A67.45,67.45,0,0,0,556,516.34a21.93,21.93,0,0,0-7.35,3.3v86.55a52.77,52.77,0,0,1-6.91,1.31,69,69,0,0,1-9.77.66c-3.22,0-2.66-.21-5.22-.66a14.58,14.58,0,0,1-6.48-2.64,12.69,12.69,0,0,1-4.06-5.37,23.27,23.27,0,0,1-1.43-8.89V514.37a16.85,16.85,0,0,1,2.53-9.66,26.49,26.49,0,0,1,6.91-6.8A62.73,62.73,0,0,1,543,489.35a89.54,89.54,0,0,1,25.13-3.29q24.79,0,38.19,10.86t13.39,30.18v79.09a87,87,0,0,1-13.44,2,50.67,50.67,0,0,1-8.68-.66,14.69,14.69,0,0,1-6.47-2.64,12.61,12.61,0,0,1-4.06-5.37,23.08,23.08,0,0,1-1.43-8.89Z"/><path class="cls-2" d="M420.88,561.51a49.52,49.52,0,0,1-3.6,19.14,40.58,40.58,0,0,1-10.4,14.78,46.87,46.87,0,0,1-16.53,9.42,74.5,74.5,0,0,1-43.92,0,47,47,0,0,1-16.53-9.42,40.58,40.58,0,0,1-10.4-14.78,49.52,49.52,0,0,1-3.59-19.14V487.82c1.43-.27,3.7-.62,6.8-1.08a64,64,0,0,1,8.94-.68,41.68,41.68,0,0,1,7.88.68,14,14,0,0,1,5.73,2.44,10.46,10.46,0,0,1,3.5,4.85,23.9,23.9,0,0,1,1.17,8.17v58.72q0,9.33,5.15,14.57c3.43,3.52,7.87,5.26,13.31,5.26s10.05-1.74,13.41-5.26,5.06-8.35,5.06-14.57v-73.1c1.42-.27,3.69-.62,6.8-1.08a64,64,0,0,1,8.95-.68,41.64,41.64,0,0,1,7.87.68,14.09,14.09,0,0,1,5.73,2.44,10.39,10.39,0,0,1,3.5,4.85,23.65,23.65,0,0,1,1.17,8.17Z"/><path class="cls-1" d="M490.65,494a10.31,10.31,0,0,0-3.49-4.85,14.07,14.07,0,0,0-5.74-2.44,41.57,41.57,0,0,0-7.87-.68,64,64,0,0,0-8.94.68c-3.11.46-5.38.81-6.8,1.08v73.1q0,9.33-5.06,14.57c-3.37,3.52-7.85,5.09-13.41,5.26a18.66,18.66,0,0,1-15.44-7.51s.44,4.41-4.11,13.13c-6.15,11.81-12.27,14.16-12.27,14.16a91.38,91.38,0,0,0,9.85,4.32,66.78,66.78,0,0,0,22,3.31,68.09,68.09,0,0,0,22-3.31,46.83,46.83,0,0,0,16.52-9.42,40.6,40.6,0,0,0,10.41-14.78,49.52,49.52,0,0,0,3.59-19.14V502.2A23.42,23.42,0,0,0,490.65,494Z"/><polygon class="cls-2" points="515.87 678.95 553.84 678.95 553.84 664.09 515.87 664.09 515.87 646.09 558.33 646.09 558.33 631.22 500.7 631.22 500.7 712.92 559.73 712.92 559.73 698.05 515.87 698.05 515.87 678.95"/><path class="cls-2" d="M461.76,645.29c7.42,0,13.3,2.2,18,6.73l4.26,4.12,10.12-10.61-4-4.06c-7-7.13-17.12-11.05-28.47-11.05-23.92,0-42,17.73-42,41.25s18,41.25,42,41.25c11.4,0,21.52-4,28.51-11.18l3.93-4.06L484,687.09l-4.26,4.13c-4.69,4.53-10.74,6.83-18,6.83-15.33,0-26.88-11.34-26.88-26.38S446.43,645.29,461.76,645.29Z"/><path class="cls-2" d="M259.17,672a23.39,23.39,0,0,1,4.74,25.53,25.39,25.39,0,0,1-4.74,7.47.12.12,0,0,1,.13.13,27,27,0,0,1-7.86,5.65,22.44,22.44,0,0,1-9.81,2.14H204.47V697.2h37.42a8.88,8.88,0,0,0,5.39-2.92,8.22,8.22,0,0,0,2.15-5.65v-.13a7.89,7.89,0,0,0-2.08-5.52,9.52,9.52,0,0,0-5.2-2.93h-19a22.44,22.44,0,0,1-9.81-2.14,26.9,26.9,0,0,1-7.86-5.65v-.13a25.39,25.39,0,0,1-4.74-7.47,24,24,0,0,1,0-18.06,25.31,25.31,0,0,1,4.74-7.48V639a27.08,27.08,0,0,1,7.86-5.65,22.58,22.58,0,0,1,9.81-2.14h37.16v15.72H222.92a8.86,8.86,0,0,0-5.39,2.93,8.2,8.2,0,0,0-2.15,5.65v.13a8.15,8.15,0,0,0,2.08,5.58,9.27,9.27,0,0,0,5.07,3h19.1a23,23,0,0,1,9.81,2.08,26.12,26.12,0,0,1,7.86,5.59A.12.12,0,0,1,259.17,672Z"/><path class="cls-2" d="M337,664.06a33.38,33.38,0,0,1-33.72,33.38H292.71v15.1H275.77V630.3l27.73.13a32.92,32.92,0,0,1,23.9,9.85A31.86,31.86,0,0,1,337,664.06Zm-16.94-.13a15.32,15.32,0,0,0-4.7-11.73,16.78,16.78,0,0,0-11.86-4.83H292.71V680.5h10.66a16,16,0,0,0,11.8-4.77A16.44,16.44,0,0,0,320.06,663.93Z"/><path class="cls-2" d="M411.89,712.54H395.4V688.92H363.61v23.62H347.36V663.71a32.27,32.27,0,1,1,64.53,0ZM395.4,674.83V663.61a15.9,15.9,0,0,0-31.79,0v11.22Z"/></svg>